<svg width="16" height="15" viewBox="0 0 16 15" fill="none" xmlns="http://www.w3.org/2000/svg">
    <path d="M12.9102 6.32422C12.9102 2.51172 10.8594 1.21484 8.94141 0.925781C8.94141 0.90625 8.94531 0.886719 8.94531 0.863281C8.94531 0.382812 8.51953 0 8 0C7.48047 0 7.07031 0.382812 7.07031 0.863281C7.07031 0.886719 7.07031 0.90625 7.07422 0.925781C5.15234 1.21875 3.08984 2.51953 3.08984 6.33203C3.08984 10.7773 1.98438 11.2539 0.5 12.5039H15.5C14.0234 11.25 12.9102 10.7695 12.9102 6.32422Z" fill="white"/>
    <path d="M8.00781 15C9.05469 15 9.91406 14.2227 10.0273 13.3203H5.98828C6.09766 14.2227 6.96094 15 8.00781 15Z" fill="white"/>
</svg>
