<svg width="20" height="21" viewBox="0 0 20 21" fill="none" xmlns="http://www.w3.org/2000/svg">
    <path fill-rule="evenodd" clip-rule="evenodd" d="M10 3.625C6.20304 3.625 3.125 6.70304 3.125 10.5C3.125 14.297 6.20304 17.375 10 17.375C13.797 17.375 16.875 14.297 16.875 10.5C16.875 6.70304 13.797 3.625 10 3.625ZM1.875 10.5C1.875 6.01269 5.51269 2.375 10 2.375C14.4873 2.375 18.125 6.01269 18.125 10.5C18.125 14.9873 14.4873 18.625 10 18.625C5.51269 18.625 1.875 14.9873 1.875 10.5Z" fill="white"/>
    <path fill-rule="evenodd" clip-rule="evenodd" d="M10 7.375C8.61929 7.375 7.5 8.49429 7.5 9.875C7.5 11.2557 8.61929 12.375 10 12.375C11.3807 12.375 12.5 11.2557 12.5 9.875C12.5 8.49429 11.3807 7.375 10 7.375ZM6.25 9.875C6.25 7.80393 7.92893 6.125 10 6.125C12.0711 6.125 13.75 7.80393 13.75 9.875C13.75 11.9461 12.0711 13.625 10 13.625C7.92893 13.625 6.25 11.9461 6.25 9.875Z" fill="white"/>
    <path fill-rule="evenodd" clip-rule="evenodd" d="M10 13.6245C9.07666 13.6245 8.17135 13.8802 7.38442 14.3632C6.59748 14.8462 5.95967 15.5377 5.54168 16.361C5.38542 16.6688 5.00924 16.7917 4.70145 16.6354C4.39367 16.4791 4.27084 16.103 4.4271 15.7952C4.94959 14.766 5.74685 13.9017 6.73052 13.2979C7.71418 12.6941 8.84583 12.3745 10 12.3745C11.1542 12.3745 12.2858 12.6941 13.2695 13.2979C14.2532 13.9017 15.0504 14.766 15.5729 15.7952C15.7292 16.103 15.6064 16.4791 15.2986 16.6354C14.9908 16.7917 14.6146 16.6688 14.4583 16.361C14.0404 15.5377 13.4025 14.8462 12.6156 14.3632C11.8287 13.8802 10.9234 13.6245 10 13.6245Z" fill="white"/>
</svg>
