<svg width="20" height="21" viewBox="0 0 20 21" fill="none" xmlns="http://www.w3.org/2000/svg">
    <path fill-rule="evenodd" clip-rule="evenodd" d="M4.375 4.875C4.20924 4.875 4.05027 4.94085 3.93306 5.05806C3.81585 5.17527 3.75 5.33424 3.75 5.5C3.75 5.66576 3.81585 5.82473 3.93306 5.94194C4.05027 6.05915 4.20924 6.125 4.375 6.125H16.875C17.2065 6.125 17.5245 6.2567 17.7589 6.49112C17.9933 6.72554 18.125 7.04348 18.125 7.375V16.125C18.125 16.4565 17.9933 16.7745 17.7589 17.0089C17.5245 17.2433 17.2065 17.375 16.875 17.375H4.375C3.87772 17.375 3.40081 17.1775 3.04917 16.8258C2.69754 16.4742 2.5 15.9973 2.5 15.5V5.5C2.5 5.00272 2.69754 4.52581 3.04917 4.17417C3.40081 3.82254 3.87772 3.625 4.375 3.625H15C15.3452 3.625 15.625 3.90482 15.625 4.25C15.625 4.59518 15.3452 4.875 15 4.875H4.375ZM3.75 7.26777V15.5C3.75 15.6658 3.81585 15.8247 3.93306 15.9419C4.05027 16.0592 4.20924 16.125 4.375 16.125H16.875V7.375H4.375C4.16004 7.375 3.94888 7.33809 3.75 7.26777Z" fill="white"/>
    <path d="M14.0625 12.6875C14.5803 12.6875 15 12.2678 15 11.75C15 11.2322 14.5803 10.8125 14.0625 10.8125C13.5447 10.8125 13.125 11.2322 13.125 11.75C13.125 12.2678 13.5447 12.6875 14.0625 12.6875Z" fill="white"/>
</svg>
